<svg xmlns="http://www.w3.org/2000/svg"><defs><style>.stack{display:none;}.stack:target{display:inline;}</style></defs>

<g class="stack" id="preview"><svg viewBox="0 0 16 16"><path fill="currentColor" d="M8 5.509c1.362 0 2.491 1.129 2.491 2.491s-1.129 2.491-2.491 2.491c-1.362 0-2.491-1.129-2.491-2.491s1.129-2.491 2.491-2.491zM8 12.164c2.296 0 4.164-1.868 4.164-4.164s-1.868-4.164-4.164-4.164c-2.296 0-4.164 1.868-4.164 4.164s1.868 4.164 4.164 4.164zM8 1.774c4.164 0 6.562 2.568 8.002 6.226-1.44 3.658-3.838 6.226-8.002 6.226s-6.562-2.568-8.002-6.226c1.44-3.658 3.838-6.226 8.002-6.226z"></path></svg></g>

<g class="stack" id="format"><svg viewBox="0 0 16 16"><path fill="currentColor" d="M5 1h8v2h-2v12.017h-2v-12.017h-2v12.017h-2v-6.017c-2.209 0-4-1.791-4-4s1.791-4 4-4z"></path></svg></g>

<g class="stack" id="heading"><svg viewBox="0 0 16 16"><path fill="currentColor" d="M0.006 0.998h11.996v2.035h-4.982v11.998h-2.033v-11.998h-4.982z"></path><path fill="currentColor" d="M13.59 14.977v-6.602h2.341v-1.383h-6.353v1.383h2.341v6.602q0 0 0.249 0 0.255 0 0.587 0t0.581 0q0.255 0 0.255 0z"></path></svg></g>

<g class="stack" id="h1"><svg viewBox="0 0 16 16"><path fill="currentColor" d="M0.006 0.998h11.996v2.035h-4.982v11.998h-2.033v-11.998h-4.982z"></path><path fill="currentColor" d="M13.557 14.977h1.66v-7.985h-1.666q0 0-0.31 0.216t-0.719 0.504q-0.409 0.282-0.725 0.498-0.31 0.216-0.31 0.216v1.511q0 0 0.304-0.21 0.31-0.216 0.714-0.493 0.404-0.282 0.708-0.493 0.31-0.216 0.31-0.216h0.033q0 0 0 0.47 0 0.465 0 1.201 0 0.73 0 1.555t0 1.561 0 1.201 0 0.465z"></path></svg></g>

<g class="stack" id="h2"><svg viewBox="0 0 16 16"><path fill="currentColor" d="M0.006 0.998h11.996v2.035h-4.982v11.998h-2.033v-11.998h-4.982z"></path><path fill="currentColor" d="M10.076 9.398v0.022h1.549v-0.028q0-0.553 0.382-0.913 0.382-0.365 0.963-0.365 0.553 0 0.908 0.315 0.354 0.31 0.354 0.764 0 0.409-0.227 0.786-0.221 0.371-0.825 0.974l-3.010 2.9v1.123h5.805v-1.328h-3.603v-0.033l1.948-1.876q0.664-0.653 1.101-1.262 0.443-0.609 0.443-1.35 0-1.007-0.791-1.66-0.786-0.653-2.048-0.653-1.306 0-2.131 0.725-0.819 0.725-0.819 1.859z"></path></svg></g>

<g class="stack" id="h3"><svg viewBox="0 0 16 16"><path fill="currentColor" d="M0.006 0.998h11.996v2.035h-4.982v11.998h-2.033v-11.998h-4.982z"></path><path fill="currentColor" d="M11.825 11.49h0.985q0.675 0 1.063 0.315 0.387 0.31 0.387 0.858 0 0.509-0.398 0.83-0.398 0.315-1.024 0.315-0.659 0-1.051-0.304-0.393-0.31-0.432-0.813h-1.599q0.055 1.101 0.88 1.782 0.83 0.681 2.18 0.681 1.383 0 2.263-0.653 0.88-0.659 0.88-1.732 0-0.83-0.537-1.339-0.531-0.509-1.422-0.587v-0.033q0.736-0.133 1.19-0.631 0.459-0.498 0.459-1.234 0-0.957-0.775-1.544t-2.020-0.587q-1.295 0-2.097 0.67-0.802 0.664-0.847 1.771h1.538q0.033-0.52 0.393-0.836 0.365-0.315 0.941-0.315 0.62 0 0.952 0.293t0.332 0.775q0 0.493-0.349 0.802t-0.924 0.31h-0.968q0 0 0 0.304 0 0.299 0 0.603 0 0.299 0 0.299z"></path></svg></g>

<g class="stack" id="bold"><svg viewBox="0 0 16 16"><path fill="currentColor" d="M11.061 7.573c0.586-0.696 0.939-1.594 0.939-2.573 0-2.206-1.794-4-4-4h-5v14h6c2.206 0 4-1.794 4-4 0-1.452-0.778-2.726-1.939-3.427zM6 3h1.586c0.874 0 1.586 0.897 1.586 2s-0.711 2-1.586 2h-1.586v-4zM8.484 13h-2.484v-4h2.484c0.913 0 1.656 0.897 1.656 2s-0.743 2-1.656 2z"></path></svg></g>

<g class="stack" id="italic"><svg viewBox="0 0 16 16"><path fill="currentColor" d="M8.413 0.996h1.905l-2.73 14.008h-1.905z"></path></svg></g>

<g class="stack" id="strikethrough"><svg viewBox="0 0 16 16"><path fill="currentColor" d="M8.316 0.719c-2.093-0.024-4 0.687-4.87 2.207-0.752 1.348-0.556 3.247 0.681 4.247 0.42 0.359 0.889 0.62 1.384 0.826h-5.512v1h8.986c0.882 0.266 1.801 0.668 2.162 1.562 0.379 0.955-0.102 2.077-0.989 2.558-1.145 0.686-2.607 0.69-3.849 0.282-0.655-0.227-1.207-0.649-1.62-1.189l-1.293 1.136c0.397 0.536 0.923 0.979 1.528 1.272 1.559 0.775 3.413 0.778 5.071 0.35 1.46-0.389 2.79-1.549 3.021-3.095 0.187-0.976 0.029-2.077-0.57-2.876h3.553v-1h-4.813c-1.47-0.79-3.211-0.948-4.767-1.539-0.768-0.265-1.578-0.851-1.587-1.744-0.101-1.135 0.878-2.042 1.917-2.277 0.745-0.221 2.107-0.196 2.776-0.071s1.36 0.419 1.823 0.937l1.209-1.139c-0.341-0.357-0.745-0.654-1.189-0.869-0.812-0.417-1.983-0.58-2.889-0.579-0.054-0.001-0.108-0.001-0.163-0.001z"></path></svg></g>

<g class="stack" id="quote"><svg viewBox="0 0 16 16"><path fill="currentColor" d="M3.508 6.5c1.933 0 3.5 1.567 3.5 3.5s-1.567 3.5-3.5 3.5-3.5-1.567-3.5-3.5l-0.016-0.5c0-3.866 3.134-7 7-7v2c-1.336 0-2.591 0.52-3.536 1.464-0.182 0.182-0.348 0.375-0.497 0.578 0.179-0.028 0.362-0.043 0.548-0.043zM12.508 6.5c1.933 0 3.5 1.567 3.5 3.5s-1.567 3.5-3.5 3.5-3.5-1.567-3.5-3.5l-0.016-0.5c0-3.866 3.134-7 7-7v2c-1.336 0-2.591 0.52-3.536 1.464-0.182 0.182-0.348 0.375-0.497 0.578 0.179-0.028 0.362-0.043 0.549-0.043z"></path></svg></g>

<g class="stack" id="code"><svg viewBox="0 0 16 16"><path fill="currentColor" d="M9.907 11.284l1.408 1.408 4.692-4.692-4.692-4.692-1.408 1.408 3.284 3.284z"></path><path fill="currentColor" d="M6.095 4.716l-1.408-1.408-4.692 4.692 4.692 4.692 1.408-1.408-3.284-3.284z"></path></svg></g>

<g class="stack" id="link"><svg viewBox="0 0 16 16"><path fill="currentColor" d="M6.879 9.934c-0.208 0-0.416-0.079-0.575-0.238-1.486-1.486-1.486-3.905 0-5.392l3-3c0.72-0.72 1.678-1.117 2.696-1.117s1.976 0.397 2.696 1.117c1.486 1.487 1.486 3.905 0 5.392l-1.371 1.371c-0.317 0.317-0.832 0.317-1.149 0s-0.317-0.832 0-1.149l1.371-1.371c0.853-0.853 0.853-2.241 0-3.094-0.413-0.413-0.963-0.641-1.547-0.641s-1.134 0.228-1.547 0.641l-3 3c-0.853 0.853-0.853 2.241 0 3.094 0.317 0.317 0.317 0.832 0 1.149-0.159 0.159-0.367 0.238-0.575 0.238z"></path><path fill="currentColor" d="M4 15.813c-1.018 0-1.976-0.397-2.696-1.117-1.486-1.486-1.486-3.905 0-5.392l1.371-1.371c0.317-0.317 0.832-0.317 1.149 0s0.317 0.832 0 1.149l-1.371 1.371c-0.853 0.853-0.853 2.241 0 3.094 0.413 0.413 0.962 0.641 1.547 0.641s1.134-0.228 1.547-0.641l3-3c0.853-0.853 0.853-2.241 0-3.094-0.317-0.317-0.317-0.832 0-1.149s0.832-0.317 1.149 0c1.486 1.486 1.486 3.905 0 5.392l-3 3c-0.72 0.72-1.678 1.117-2.696 1.117z"></path></svg></g>

<g class="stack" id="file"><svg viewBox="0 0 16 16"><path fill="currentColor" d="M1 1c-0.55 0-1 0.45-1 1v12c0 0.55 0.45 1 1 1h14c0.55 0 1-0.45 1-1v-12c0-0.55-0.45-1-1-1zM2.007 2.487l11.975 0.022c0.577 0.017 0.527 0.485 0.527 0.485l-0.008 3.462-4 3.544h-1l-4-5-3.978 7.012-0.019-9.034c0.001-0.001-0.039-0.508 0.504-0.491z"></path><path fill="currentColor" d="M12.375 5.125c0 0.828-0.672 1.5-1.5 1.5s-1.5-0.672-1.5-1.5c0-0.828 0.672-1.5 1.5-1.5s1.5 0.672 1.5 1.5z"></path></svg></g>

<g class="stack" id="list"><svg viewBox="0 0 16 16"><path fill="currentColor" d="M6 1h10v2h-10zM6 7h10v2h-10zM6 13h10v2h-10zM-0.017 2c0-1.105-0.105-1.017 1-1.017s1-0.105 1 1c0 1.105 0.138 1.017-0.966 1.017s-1.034 0.105-1.034-1zM-0.005 8c0-1.105-0.099-1.005 1.005-1.005s1.017-0.116 1.017 0.988c0 1.105 0.088 1.022-1.017 1.022s-1.005 0.099-1.005-1.005zM0.008 14c0-1.105-0.113-1 0.992-1s1-0.113 1 0.992c0 1.105 0.122 1-0.983 1s-1.008 0.113-1.008-0.992z"></path></svg></g>

<g class="stack" id="ol"><svg viewBox="0 0 16 16"><path fill="currentColor" d="M7 13h9v2h-9zM7 7h9v2h-9zM7 1h9v2h-9z"></path><path fill="currentColor" d="M1.456 5.52h1.147v-5.519h-1.151q0 0-0.214 0.149t-0.497 0.348q-0.283 0.195-0.501 0.344-0.214 0.149-0.214 0.149v1.044q0 0 0.21-0.145 0.214-0.149 0.493-0.34 0.279-0.195 0.49-0.34 0.214-0.149 0.214-0.149h0.023q0 0 0 0.325 0 0.321 0 0.83 0 0.505 0 1.075t0 1.079 0 0.83 0 0.321z"></path><path fill="currentColor" d="M-0.016 11.15v0.015h1.071v-0.019q0-0.382 0.264-0.631 0.264-0.252 0.666-0.252 0.382 0 0.627 0.218 0.245 0.214 0.245 0.528 0 0.283-0.157 0.543-0.153 0.256-0.57 0.673l-2.081 2.004v0.776h4.012v-0.918h-2.49v-0.023l1.346-1.297q0.459-0.451 0.761-0.872 0.306-0.421 0.306-0.933 0-0.696-0.547-1.147-0.543-0.451-1.415-0.451-0.903 0-1.473 0.501-0.566 0.501-0.566 1.285z"></path></svg></g>

<g class="stack" id="tl"><svg viewBox="0 0 16 16"><path fill="currentColor" d="M8.945 1.034l7.055-0.034v2l-7.033-0.012zM7 7h9v2h-9zM7 13h9v2h-9zM2.017 3c-1.345 8.667-0.672 4.333 0 0z"></path><path fill="currentColor" d="M6.5 0l-3.517 3.517-1.534-1.534-1.449 1.517 3.017 3 4.992-4.958z"></path></svg></g>

<g class="stack" id="hr"><svg viewBox="0 0 16 16"><path fill="currentColor" d="M1 7h14v2h-14z"></path></svg></g>

<g class="stack" id="table"><svg viewBox="0 0 16 16"><path fill="currentColor" d="M0 1v14h16v-14zM7.5 3v5h-6.5v-5zM8.5 8v-5h6.5v5zM1 9h6.5v5h-6.5zM8.5 14v-5h6.5v5z"></path></svg></g>

<g class="stack" id="emojiawesome"><svg viewBox="0 0 16 16"><path fill="currentColor" d="M10.006 6c0-0.498 0.487-1.005 0.988-1.005 0.493 0 1.005 0.516 1.005 1.005s-0.521 0.998-1.005 0.988c-0.501-0.010-0.988-0.507-0.988-0.988zM8 16c4.418 0 8-3.582 8-8s-3.582-8-8-8c-4.418 0-8 3.582-8 8s3.582 8 8 8zM8 1.5c3.59 0 6.5 2.91 6.5 6.5s-2.91 6.5-6.5 6.5c-3.59 0-6.5-2.91-6.5-6.5s2.91-6.5 6.5-6.5zM12.5 8.966c-0.445 2.035-1.893 3.534-4.5 3.534s-3.987-1.433-4.5-3.536c4.022-0.028 4.969-0.013 9 0.002zM4 6c0-0.583 0.499-1 1-1 0.493 0 1 0.511 1 1s-0.516 1.009-1 1c-0.501-0.010-1-0.417-1-1z"></path></svg></g>

<g class="stack" id="fontawesome"><svg viewBox="0 0 16 16"><path fill="currentColor" d="M16 6.204l-5.528-0.803-2.472-5.009-2.472 5.009-5.528 0.803 4 3.899-0.944 5.505 4.944-2.599 4.944 2.599-0.944-5.505 4-3.899z"></path></svg></g>

<g class="stack" id="status"><svg viewBox="0 0 16 16"><path fill="currentColor" d="M3.985 0.985l-1.984 0.016v13.999l1.984-0.016v-5.669c0.597-0.403 1.323-0.677 2.64-0.677 1.046 0 1.972 0.238 2.625 0.445v0c0.622 0.271 1.495 0.677 2.625 0.677s1.613-0.336 2.125-0.739v-6.999c-0.512 0.404-0.995 0.739-2.125 0.739s-2.047-0.439-2.625-0.677c-0.641-0.195-1.579-0.445-2.625-0.445-1.318 0-2.043 0.273-2.64 0.677z"></path></svg></g>

<g class="stack" id="undo"><svg viewBox="0 0 16 16"><path fill="currentColor" d="M11.904 16c1.777-3.219 2.076-8.13-4.904-7.966v3.966l-6-6 6-6v3.881c8.359-0.218 9.29 7.378 4.904 12.119z"></path></svg></g>

<g class="stack" id="redo"><svg viewBox="0 0 16 16"><path fill="currentColor" d="M9 3.881v-3.881l6 6-6 6v-3.966c-6.98-0.164-6.681 4.747-4.904 7.966-4.386-4.741-3.455-12.337 4.904-12.119z"></path></svg></g>

<g class="stack" id="spinner"><svg viewBox="0 0 16 16"><path fill="currentColor" d="M8.044 0.771c-0.249 0-0.451 0.202-0.451 0.451v2.705c0 0.249 0.202 0.451 0.451 0.451s0.451-0.202 0.451-0.451v-2.705c0-0.249-0.202-0.451-0.451-0.451zM4.651 1.677c-0.073 0.002-0.146 0.021-0.213 0.060-0.216 0.125-0.289 0.4-0.165 0.616l1.352 2.343c0.125 0.216 0.4 0.29 0.616 0.165 0.145-0.083 0.226-0.235 0.226-0.391 0-0.077-0.019-0.154-0.060-0.225l-1.352-2.343c-0.086-0.148-0.243-0.23-0.403-0.225zM11.437 1.677c-0.16-0.004-0.317 0.077-0.403 0.225l-1.352 2.343c-0.124 0.216-0.051 0.491 0.165 0.616s0.491 0.051 0.616-0.165l1.352-2.342c0.041-0.071 0.060-0.149 0.060-0.225 0-0.156-0.081-0.307-0.225-0.391-0.067-0.039-0.141-0.058-0.213-0.060zM13.887 4.096c-0.082 0.002-0.164 0.024-0.24 0.068l-2.342 1.352c-0.243 0.14-0.326 0.45-0.186 0.693s0.45 0.326 0.693 0.186l2.343-1.352c0.163-0.094 0.254-0.265 0.254-0.44h-0c0-0.086-0.022-0.173-0.068-0.253-0.096-0.167-0.273-0.258-0.453-0.254zM2.2 4.152c-0.16-0.004-0.317 0.077-0.403 0.225-0.125 0.216-0.051 0.491 0.165 0.616l2.343 1.353c0.216 0.125 0.491 0.051 0.616-0.165 0.041-0.071 0.060-0.149 0.060-0.225 0-0.156-0.081-0.307-0.225-0.391l-2.343-1.352c-0.067-0.039-0.141-0.058-0.213-0.060zM1.282 7.082c-0.498 0-0.902 0.404-0.902 0.902s0.404 0.902 0.902 0.902h2.705c0.498 0 0.902-0.404 0.902-0.902s-0.404-0.902-0.902-0.902zM12.101 7.421c-0.311 0-0.564 0.252-0.564 0.564s0.252 0.564 0.564 0.564h2.705c0.311 0 0.564-0.252 0.564-0.564s-0.252-0.564-0.564-0.564zM4.548 9.168c-0.15-0.003-0.302 0.033-0.441 0.113l-2.343 1.352c-0.404 0.233-0.543 0.75-0.309 1.155s0.75 0.543 1.155 0.309l2.343-1.352c0.271-0.157 0.423-0.441 0.423-0.733 0-0.143-0.037-0.289-0.113-0.422-0.153-0.265-0.428-0.416-0.714-0.423zM11.574 9.393c-0.22-0.006-0.436 0.106-0.553 0.31-0.171 0.296-0.070 0.676 0.227 0.847l2.343 1.352c0.296 0.171 0.676 0.070 0.847-0.227 0.056-0.098 0.083-0.204 0.083-0.309l-0 0c0-0.214-0.111-0.423-0.31-0.537l-2.343-1.352c-0.093-0.053-0.193-0.080-0.293-0.083zM5.998 10.709c-0.266 0.006-0.523 0.147-0.666 0.394l-1.352 2.343c-0.218 0.377-0.089 0.86 0.289 1.078s0.86 0.089 1.078-0.289l1.352-2.343c0.072-0.124 0.106-0.26 0.106-0.394l0-0c0-0.273-0.142-0.538-0.395-0.684-0.13-0.075-0.272-0.109-0.411-0.106zM10.087 10.822c-0.12-0.003-0.241 0.026-0.353 0.091-0.323 0.187-0.434 0.6-0.248 0.924l1.352 2.343c0.187 0.323 0.6 0.434 0.924 0.248 0.217-0.125 0.338-0.353 0.338-0.586l-0 0c0-0.115-0.029-0.231-0.091-0.338l-1.352-2.343c-0.123-0.212-0.343-0.333-0.571-0.338zM8.044 11.309c-0.405 0-0.733 0.328-0.733 0.733v2.705c0 0.405 0.328 0.733 0.733 0.733s0.733-0.328 0.733-0.733v-2.705c0-0.405-0.328-0.733-0.733-0.733z"></path></svg></g>

<g class="stack" id="select"><svg viewBox="0 0 16 16"><path fill="currentColor" d="M12.78 6.22c0.136 0.136 0.219 0.323 0.219 0.53s-0.084 0.394-0.219 0.53l-4.25 4.25c-0.136 0.136-0.323 0.219-0.53 0.219s-0.394-0.084-0.53-0.219l-4.25-4.25c-0.125-0.134-0.201-0.313-0.201-0.511 0-0.414 0.336-0.75 0.75-0.75 0.198 0 0.378 0.077 0.512 0.202l-0-0 3.72 3.72 3.72-3.72c0.136-0.136 0.323-0.219 0.53-0.219s0.394 0.084 0.53 0.219l-0-0z"></path></svg></g>

<g class="stack" id="search"><svg viewBox="0 0 16 16"><path fill="currentColor" d="M15.504 13.616l-3.79-3.223c-0.392-0.353-0.811-0.514-1.149-0.499 0.895-1.048 1.435-2.407 1.435-3.893 0-3.314-2.686-6-6-6s-6 2.686-6 6 2.686 6 6 6c1.486 0 2.845-0.54 3.893-1.435-0.016 0.338 0.146 0.757 0.499 1.149l3.223 3.79c0.552 0.613 1.453 0.665 2.003 0.115s0.498-1.452-0.115-2.003zM6 10c-2.209 0-4-1.791-4-4s1.791-4 4-4 4 1.791 4 4-1.791 4-4 4z"></path></svg></g>

<g class="stack" id="close"><svg viewBox="0 0 16 16"><path fill="currentColor" d="M6.309 7.945l-4.364-5.231 1.854-1.691 4.161 4.999 4.288-5.026 1.71 1.467-4.486 5.32 4.584 5.63-1.603 1.567-4.483-5.287-4.176 5.312-1.744-1.591z"></path></svg></g>

<g class="stack" id="help"><svg viewBox="0 0 16 16"><path fill="currentColor" d="M6.852 10.89v-1.053q0-0.421 0.038-0.708 0.057-0.306 0.172-0.536 0.134-0.249 0.325-0.459 0.211-0.23 0.498-0.536l1.474-1.493q0.478-0.478 0.478-1.244 0-0.746-0.498-1.206-0.478-0.478-1.225-0.478-0.804 0-1.32 0.555-0.517 0.536-0.593 1.32l-2.449-0.191q0.115-0.919 0.478-1.627 0.364-0.727 0.938-1.225 0.593-0.498 1.359-0.746 0.765-0.268 1.684-0.268 0.861 0 1.588 0.249 0.746 0.249 1.282 0.727 0.555 0.459 0.861 1.167 0.306 0.689 0.306 1.588 0 0.631-0.172 1.11t-0.459 0.88-0.67 0.765q-0.364 0.364-0.785 0.765-0.268 0.249-0.459 0.44t-0.325 0.402q-0.115 0.191-0.172 0.459-0.057 0.249-0.057 0.612v0.727zM6.469 13.55q0-0.612 0.44-1.053 0.459-0.44 1.091-0.44 0.612 0 1.072 0.421t0.459 1.033-0.459 1.053q-0.44 0.44-1.072 0.44-0.306 0-0.593-0.115-0.268-0.115-0.478-0.306t-0.344-0.459q-0.115-0.268-0.115-0.574z"></path></svg></g>

<g class="stack" id="logo"><svg viewBox="0 0 16 16"><path fill="currentColor" d="M8-0.005l-7.623 4.003c2.818 1.48 2.818 1.48 0 0-0.029 1.334-0.013 2.668 0 4.003-0.029 1.334-0.013 2.668 0 4.003l3.811 2.001c0-0.001 0-0.002 0-0.003 0 0.001-0 0.002 0 0.003l3.811 2.001 7.623-4.003c0.013-1.334 0.029-2.668 0-4.003 0.013-1.334 0.029-2.668 0-4.003-8.681 4.558 0-0 0-0l-3.811-2.001z"></path></svg></g>

</svg>